<svg width="60" height="60" viewBox="0 0 60 60" fill="none" xmlns="http://www.w3.org/2000/svg">
<g clip-path="url(#clip0_514_1034)">
<path d="M41.625 2H18.375L1.875 18.25V41.7501L18.375 58.0001H41.625L58.125 41.7501V18.25L41.625 2Z" stroke="#F97316" stroke-width="4" stroke-miterlimit="10" stroke-linecap="round" stroke-linejoin="round"/>
<path d="M29.875 46.25C31.946 46.25 33.625 44.5712 33.625 42.5C33.625 40.429 31.946 38.75 29.875 38.75C27.8038 38.75 26.125 40.429 26.125 42.5C26.125 44.5712 27.8038 46.25 29.875 46.25Z" stroke="#F97316" stroke-width="4" stroke-miterlimit="10" stroke-linecap="round" stroke-linejoin="round"/>
<path d="M34.875 17.5C34.875 20.25 29.875 31.25 29.875 31.25C29.875 31.25 24.8749 20.25 24.8749 17.5C24.8749 14.75 27.125 12.5 29.875 12.5C32.625 12.5 34.875 14.75 34.875 17.5Z" stroke="#F97316" stroke-width="4" stroke-miterlimit="10" stroke-linecap="round" stroke-linejoin="round"/>
</g>
<defs>
<clipPath id="clip0_514_1034">
<rect width="60" height="60" fill="white"/>
</clipPath>
</defs>
</svg>
