<svg width="24" height="24" viewBox="0 0 24 24" fill="none" xmlns="http://www.w3.org/2000/svg">
<g clip-path="url(#clip0_494_1435)">
<path d="M0.75 12C0.75 14.9837 1.93526 17.8452 4.04505 19.955C6.15483 22.0647 9.01631 23.25 12 23.25C14.9837 23.25 17.8452 22.0647 19.955 19.955C22.0647 17.8452 23.25 14.9837 23.25 12C23.25 9.01631 22.0647 6.15483 19.955 4.04505C17.8452 1.93526 14.9837 0.75 12 0.75C9.01631 0.75 6.15483 1.93526 4.04505 4.04505C1.93526 6.15483 0.75 9.01631 0.75 12Z" stroke="black" stroke-width="1.5" stroke-linecap="round" stroke-linejoin="round"/>
<path d="M15.0001 18.0478C13.6852 18.7004 12.1934 18.9065 10.7508 18.6351C9.30819 18.3637 7.99336 17.6295 7.00551 16.5437C6.01765 15.4579 5.41061 14.0798 5.27635 12.618C5.14209 11.1563 5.48793 9.69054 6.26146 8.44298C7.035 7.19542 8.19408 6.23398 9.56311 5.70431C10.9322 5.17465 12.4365 5.10563 13.8483 5.50771C15.2601 5.9098 16.5023 6.76107 17.3868 7.93256C18.2714 9.10405 18.7499 10.5319 18.7501 11.9998" stroke="black" stroke-width="1.5" stroke-linecap="round" stroke-linejoin="round"/>
<path d="M9 12C9 12.7956 9.31607 13.5587 9.87868 14.1213C10.4413 14.6839 11.2044 15 12 15C12.7956 15 13.5587 14.6839 14.1213 14.1213C14.6839 13.5587 15 12.7956 15 12C15 11.2044 14.6839 10.4413 14.1213 9.87868C13.5587 9.31607 12.7956 9 12 9C11.2044 9 10.4413 9.31607 9.87868 9.87868C9.31607 10.4413 9 11.2044 9 12Z" stroke="black" stroke-width="1.5" stroke-linecap="round" stroke-linejoin="round"/>
<path d="M15 12V13.125C15 13.6223 15.1975 14.0992 15.5492 14.4508C15.9008 14.8025 16.3777 15 16.875 15C17.3723 15 17.8492 14.8025 18.2008 14.4508C18.5525 14.0992 18.75 13.6223 18.75 13.125V12" stroke="black" stroke-width="1.5" stroke-linecap="round" stroke-linejoin="round"/>
</g>
<defs>
<clipPath id="clip0_494_1435">
<rect width="24" height="24" fill="white"/>
</clipPath>
</defs>
</svg>
