<svg width="24" height="24" viewBox="0 0 24 24" fill="none" xmlns="http://www.w3.org/2000/svg">
<g clip-path="url(#clip0_494_1456)">
<path d="M9.49012 12.82L12.0001 15.36L11.5301 17.12C11.4667 17.3908 11.4769 17.6735 11.5595 17.939C11.6422 18.2045 11.7943 18.4431 12.0001 18.63C12.1965 18.8133 12.4364 18.9434 12.6971 19.0082C12.9578 19.0729 13.2307 19.0701 13.4901 19L15.2401 18.53L16.0001 19.35L15.5301 21.11C15.4668 21.3808 15.4769 21.6635 15.5596 21.929C15.6422 22.1945 15.7943 22.4331 16.0001 22.62C16.1945 22.8034 16.4323 22.9344 16.6911 23.0008C16.9499 23.0673 17.2214 23.067 17.4801 23L19.2301 22.53C19.6717 22.9716 20.2706 23.2197 20.8951 23.2197C21.5196 23.2197 22.1185 22.9716 22.5601 22.53C23.0017 22.0884 23.2498 21.4895 23.2498 20.865C23.2498 20.2405 23.0017 19.6416 22.5601 19.2L12.8201 9.49003C13.3909 8.14617 13.4765 6.64557 13.0621 5.24552C12.6477 3.84548 11.7592 2.63321 10.5488 1.81657C9.33852 0.999935 7.88172 0.629806 6.42832 0.769649C4.97502 0.909492 3.61552 1.55059 2.58312 2.58303C1.55062 3.61547 0.909522 4.97492 0.769722 6.4283C0.629822 7.88167 1.00002 9.33842 1.81662 10.5488C2.63322 11.7591 3.84552 12.6477 5.24562 13.0621C6.64562 13.4765 8.14622 13.3909 9.49012 12.82Z" stroke="black" stroke-width="1.5" stroke-linecap="round" stroke-linejoin="round"/>
<path d="M6.15981 4.26001C5.91031 4.26001 5.66331 4.30915 5.43271 4.40464C5.20221 4.50012 4.99281 4.64008 4.81631 4.81651C4.63991 4.99294 4.49991 5.20239 4.40451 5.43291C4.30901 5.66343 4.25981 5.9105 4.25981 6.16001C4.25981 6.40952 4.30901 6.65659 4.40451 6.88711C4.49991 7.11763 4.63991 7.32708 4.81631 7.50351C4.99281 7.67994 5.20221 7.8199 5.43271 7.91538C5.66331 8.01086 5.91031 8.06001 6.15981 8.06001C6.66371 8.06001 7.14701 7.85983 7.50331 7.50351C7.85971 7.14719 8.05981 6.66392 8.05981 6.16001C8.05981 5.6561 7.85971 5.17283 7.50331 4.81651C7.14701 4.46019 6.66371 4.26001 6.15981 4.26001Z" stroke="black" stroke-width="1.5" stroke-linecap="round" stroke-linejoin="round"/>
</g>
<defs>
<clipPath id="clip0_494_1456">
<rect width="24" height="24" fill="white" transform="matrix(0 1 -1 0 24 0)"/>
</clipPath>
</defs>
</svg>
