<svg width="24" height="24" viewBox="0 0 24 24" fill="none" xmlns="http://www.w3.org/2000/svg">
<g clip-path="url(#clip0_626_1592)">
<path d="M15.75 9.75H8.25C7.42157 9.75 6.75 10.4216 6.75 11.25V15.75C6.75 16.5784 7.42157 17.25 8.25 17.25H15.75C16.5784 17.25 17.25 16.5784 17.25 15.75V11.25C17.25 10.4216 16.5784 9.75 15.75 9.75Z" stroke="black" stroke-width="1.5" stroke-linecap="round" stroke-linejoin="round"/>
<path d="M12 13.875C11.7929 13.875 11.625 13.7071 11.625 13.5C11.625 13.2929 11.7929 13.125 12 13.125" stroke="black" stroke-width="1.5"/>
<path d="M12 13.875C12.2071 13.875 12.375 13.7071 12.375 13.5C12.375 13.2929 12.2071 13.125 12 13.125" stroke="black" stroke-width="1.5"/>
<path d="M8.25 9.75V7.5C8.25 6.50544 8.64509 5.55161 9.34835 4.84835C10.0516 4.14509 11.0054 3.75 12 3.75C12.9946 3.75 13.9484 4.14509 14.6517 4.84835C15.3549 5.55161 15.75 6.50544 15.75 7.5V9.75" stroke="black" stroke-width="1.5" stroke-linecap="round" stroke-linejoin="round"/>
<path d="M12 23.25C5.324 21.469 0.75 17.51 0.75 10.5V0.75H23.25V10.5C23.25 17.505 18.683 21.467 12 23.25Z" stroke="black" stroke-width="1.5" stroke-linecap="round" stroke-linejoin="round"/>
</g>
<defs>
<clipPath id="clip0_626_1592">
<rect width="24" height="24" fill="white"/>
</clipPath>
</defs>
</svg>
