<svg width="24" height="24" viewBox="0 0 24 24" fill="none" xmlns="http://www.w3.org/2000/svg">
<path d="M7.625 8.125C7.625 9.21902 8.0596 10.2682 8.83318 11.0418C9.60677 11.8154 10.656 12.25 11.75 12.25C12.844 12.25 13.8932 11.8154 14.6668 11.0418C15.4404 10.2682 15.875 9.21902 15.875 8.125C15.875 7.03098 15.4404 5.98177 14.6668 5.20818C13.8932 4.4346 12.844 4 11.75 4C10.656 4 9.60677 4.4346 8.83318 5.20818C8.0596 5.98177 7.625 7.03098 7.625 8.125Z" stroke="black" stroke-width="1.5" stroke-linecap="round" stroke-linejoin="round"/>
<path d="M5 20.5C5 18.7098 5.71116 16.9929 6.97703 15.727C8.2429 14.4612 9.95979 13.75 11.75 13.75C13.5402 13.75 15.2571 14.4612 16.523 15.727C17.7888 16.9929 18.5 18.7098 18.5 20.5" stroke="black" stroke-width="1.5" stroke-linecap="round" stroke-linejoin="round"/>
</svg>
