<svg width="25" height="24" viewBox="0 0 25 24" fill="none" xmlns="http://www.w3.org/2000/svg">
<path d="M13.5 1C13.5 0.447715 13.0523 0 12.5 0C11.9477 0 11.5 0.447715 11.5 1H13.5ZM11.5 22.2789C11.5 22.8312 11.9477 23.2789 12.5 23.2789C13.0523 23.2789 13.5 22.8312 13.5 22.2789H11.5ZM1 10.6395C0.447715 10.6395 0 11.0872 0 11.6395C0 12.1917 0.447715 12.6395 1 12.6395V10.6395ZM24 12.6395C24.5523 12.6395 25 12.1917 25 11.6395C25 11.0872 24.5523 10.6395 24 10.6395V12.6395ZM11.5 1V11.6395H13.5V1H11.5ZM11.5 11.6395V22.2789H13.5V11.6395H11.5ZM12.5 10.6395H1V12.6395H12.5V10.6395ZM1 12.6395H23.2581V10.6395H1V12.6395ZM23.2581 12.6395H23.629V10.6395H23.2581V12.6395ZM23.629 12.6395H24V10.6395H23.629V12.6395Z" fill="black"/>
</svg>
